<svg width="16" height="16" viewBox="0 0 16 16" fill="none" xmlns="http://www.w3.org/2000/svg"><path fill-rule="evenodd" clip-rule="evenodd" d="M2.5 2C2.22386 2 2 2.22386 2 2.5V11.5C2 11.7761 2.22386 12 2.5 12H7V13H2.5C1.67157 13 1 12.3284 1 11.5V2.5C1 1.67157 1.67157 1 2.5 1H11.5C12.3284 1 13 1.67157 13 2.49999L13 5H7.84615C7.69233 5 7.54706 4.92919 7.45229 4.80802L5.40642 2.19198C5.31166 2.07081 5.16639 2 5.01256 2H2.5ZM8.08987 4L6.52577 2H11.5C11.7761 2 12 2.22386 12 2.5L12 4H8.08987Z" fill="#6B6B6B"></path><path d="M13 10H10V9H13V10Z" fill="#6B6B6B"></path><path d="M10 12H12V11H10V12Z" fill="#6B6B6B"></path><path fill-rule="evenodd" clip-rule="evenodd" d="M9 6C8.44772 6 8 6.44772 8 7V14C8 14.5523 8.44771 15 9 15L14 15C14.5523 15 15 14.5523 15 14V7.83333C15 7.69878 14.9458 7.5699 14.8496 7.47583L13.4859 6.1425C13.3925 6.05115 13.267 6 13.1364 6H9ZM9 7H12.9325L14 8.04374V14L9 14V7Z" fill="#6B6B6B"></path></svg>