<svg width="140" height="120" viewBox="0 0 140 120" fill="none" xmlns="http://www.w3.org/2000/svg">
<g style="mix-blend-mode:multiply" opacity="0.2">
<path d="M82.4465 113.51C82.4465 116.43 68.2465 118.8 50.7265 118.8C33.2065 118.8 19.0065 116.43 19.0065 113.51C19.0065 112.05 22.6365 111.16 28.2765 109.78C28.4565 109.74 30.3465 115.71 32.4865 115.49C33.9465 115.34 36.4465 116.91 39.9365 115.13C41.5765 114.29 43.4865 108.32 44.2665 108.28C47.3165 108.12 47.3565 108.23 50.7265 108.23C52.3565 108.23 52.8865 108.46 54.4465 108.41C55.1765 108.39 54.9065 113.01 56.2465 114.02C57.2065 114.74 59.6965 116.3 62.2065 116.17C64.3065 116.06 67.1865 114.24 68.2465 113.59C68.9765 113.14 68.8065 109.12 69.6165 109.21C78.5965 110.13 82.4465 111.62 82.4465 113.51Z" fill="#262626"/>
</g>
<path opacity="0.6" d="M110.416 52.18C110.416 62.37 107.306 70.63 103.456 70.63C100.736 70.63 98.4965 66.16 97.3465 60.13C97.2965 59.88 99.8565 57.88 100.026 57.67C101.196 56.25 101.086 55.24 100.996 53.65C100.966 53.18 101.106 50.19 99.4365 49.33C97.6865 48.43 96.6664 48.69 96.6664 48.17C96.6664 46.42 96.5964 48.73 96.7664 47.12C97.5964 39.39 100.276 33.73 103.456 33.73C107.306 33.73 110.416 41.99 110.416 52.18Z" fill="url(#paint0_linear_818_1784)"/>
<path d="M59.1665 54.61C48.2565 54.61 39.3865 45.74 39.3865 34.83C39.3865 23.92 48.2565 15.05 59.1665 15.05C70.0765 15.05 78.9465 23.92 78.9465 34.83C78.9465 45.74 70.0665 54.61 59.1665 54.61ZM59.1665 16.05C48.8065 16.05 40.3865 24.48 40.3865 34.83C40.3865 45.18 48.8165 53.61 59.1665 53.61C69.5165 53.61 77.9465 45.18 77.9465 34.83C77.9465 24.48 69.5165 16.05 59.1665 16.05Z" fill="var(--illustration-stroke-color, #686868)"/>
<path d="M61.9965 117.19C57.8165 117.19 54.3565 114.06 53.9365 109.9V90.6501C53.9365 90.3701 54.1565 90.1501 54.4365 90.1501C54.7165 90.1501 54.9365 90.3701 54.9365 90.6501V109.85C55.3065 113.44 58.3464 116.19 62.0064 116.19C65.7264 116.19 68.7765 113.39 69.0865 109.68C70.0965 97.6801 71.7165 73.9701 71.2365 50.0801C71.2265 49.8001 71.4464 49.5801 71.7264 49.5701H71.7365C72.0065 49.5701 72.2265 49.7901 72.2365 50.0601C72.7165 74.0001 71.0864 97.7401 70.0764 109.76C69.7164 114 66.2465 117.19 61.9965 117.19Z" fill="var(--illustration-stroke-color, #686868)"/>
<path d="M36.0364 116.69H35.4864C33.0464 116.69 30.7764 115.6 29.2564 113.69C27.7364 111.78 27.1764 109.32 27.7264 106.95L35.7364 79.1102L37.9365 70.9202C35.9965 73.7202 32.7464 78.3802 30.1964 81.9302C26.0664 87.6802 21.3464 85.4502 21.2964 85.4302C21.2064 85.3902 18.4165 84.1702 17.3765 81.3202C16.6965 79.4402 16.9364 77.3302 18.1064 75.0302C21.0464 69.2302 32.8164 50.9302 41.8664 44.1202C42.0864 43.9502 42.4065 44.0002 42.5665 44.2202C42.7365 44.4402 42.6865 44.7502 42.4665 44.9202C33.9665 51.3202 22.1565 69.2502 18.9965 75.4902C17.9665 77.5302 17.7365 79.3702 18.3165 80.9802C19.1965 83.4202 21.6865 84.5202 21.7165 84.5302C21.8965 84.6202 25.7664 86.4002 29.3864 81.3602C32.6964 76.7602 37.1664 70.3002 38.4564 68.4302C38.6264 68.1802 38.9564 68.1002 39.2264 68.2402C39.4964 68.3802 39.6065 68.7002 39.4965 68.9802L36.7064 79.3802L28.6964 107.2C28.2264 109.25 28.7164 111.4 30.0464 113.07C31.3764 114.74 33.3665 115.7 35.4965 115.7H36.0464C38.9964 115.7 41.6464 113.83 42.6164 111.04L50.3965 92.2102C50.4365 92.1002 50.5165 92.0202 50.6165 91.9602L55.4065 89.3502C55.6465 89.2202 55.9565 89.3102 56.0865 89.5502C56.2165 89.7902 56.1264 90.1002 55.8864 90.2302L51.2465 92.7602L43.5364 111.4C42.4364 114.55 39.4064 116.69 36.0364 116.69ZM38.5364 68.6502C38.5264 68.6702 38.5264 68.6902 38.5164 68.7102L38.5364 68.6502Z" fill="var(--illustration-stroke-color, #686868)"/>
<path d="M38.3864 69.8102C38.2764 69.8102 38.1565 69.7702 38.0665 69.6902C37.8565 69.5102 37.8264 69.2002 38.0064 68.9902C38.2864 68.6602 44.6764 60.8602 37.9164 48.3502C37.7864 48.1102 37.8764 47.8002 38.1164 47.6702C38.3564 47.5402 38.6664 47.6302 38.7964 47.8702C45.8964 61.0102 38.8464 69.5502 38.7764 69.6302C38.6764 69.7502 38.5364 69.8102 38.3864 69.8102Z" fill="var(--illustration-stroke-color, #686868)"/>
<path d="M38.3564 70.4101C38.1964 70.4101 38.0464 70.3301 37.9464 70.1901C37.7864 69.9601 37.8464 69.6501 38.0764 69.4901C38.1064 69.4701 41.3164 67.2201 43.7464 63.5301C46.9664 58.6401 47.3864 53.6501 44.9964 48.7001C44.8764 48.4501 44.9764 48.1501 45.2264 48.0301C45.4764 47.9101 45.7764 48.0101 45.8964 48.2601C52.0064 60.8701 38.7764 70.2101 38.6464 70.3101C38.5564 70.3801 38.4564 70.4101 38.3564 70.4101Z" fill="var(--illustration-stroke-color, #686868)"/>
<path d="M72.4464 66.6801C72.3664 66.6801 72.2764 66.6601 72.2064 66.6201C71.9664 66.4901 71.8764 66.1801 72.0164 65.9401C75.4764 59.7101 74.5264 52.0001 74.5164 51.9201C74.4764 51.6501 74.6764 51.4001 74.9464 51.3601C75.2164 51.3201 75.4664 51.5201 75.5064 51.7901C75.5464 52.1201 76.5164 59.9001 72.8864 66.4201C72.7864 66.5901 72.6164 66.6801 72.4464 66.6801Z" fill="var(--illustration-stroke-color, #686868)"/>
<path d="M103.436 71.3401C100.536 71.3401 98.0365 67.5401 96.7365 61.1701C96.6765 60.9001 96.8565 60.6401 97.1265 60.5801C97.3965 60.5201 97.6565 60.7001 97.7165 60.9701C98.8765 66.6701 101.126 70.3501 103.436 70.3501C106.986 70.3501 109.986 62.1001 109.986 52.3301C109.986 42.5601 106.986 34.3101 103.436 34.3101C100.466 34.3101 98.0665 40.0001 97.4665 48.4701C97.4465 48.7501 97.2065 48.9601 96.9365 48.9301C96.6565 48.9101 96.4565 48.6701 96.4765 48.4001C97.1465 39.0901 99.8165 33.3101 103.446 33.3101C107.676 33.3101 110.996 41.6701 110.996 52.3301C110.996 62.9901 107.666 71.3401 103.436 71.3401Z" fill="var(--illustration-stroke-color, #686868)"/>
<path d="M103.746 85.1201C99.7265 85.1201 96.1264 80.0501 93.8564 71.2101C93.7864 70.9401 93.9465 70.6701 94.2165 70.6001C94.4865 70.5301 94.7564 70.6901 94.8264 70.9601C96.9364 79.2001 100.276 84.1201 103.746 84.1201C109.756 84.1201 114.826 69.4601 114.826 52.1001C114.826 34.7401 109.756 20.0801 103.746 20.0801C100.156 20.0801 96.7665 25.2501 94.6565 33.9201C94.5965 34.1901 94.3265 34.3501 94.0565 34.2901C93.7865 34.2301 93.6265 33.9501 93.6865 33.6901C95.9365 24.4101 99.6065 19.0901 103.746 19.0901C110.516 19.0901 115.826 33.5901 115.826 52.1101C115.826 70.6301 110.516 85.1201 103.746 85.1201Z" fill="var(--illustration-stroke-color, #686868)"/>
<path d="M104.756 95.1199C97.0164 95.1199 90.2364 84.4199 87.4664 67.8599C87.4164 67.5899 87.6064 67.3299 87.8764 67.2799C88.1464 67.2299 88.4064 67.4199 88.4564 67.6899C91.0964 83.4999 97.6464 94.1099 104.756 94.1099C114.416 94.1099 122.286 75.3999 122.286 52.3999C122.286 29.3999 114.426 10.6899 104.756 10.6899C95.8864 10.6899 88.3964 26.4999 87.3564 47.4599C87.3464 47.7399 87.0964 47.9499 86.8364 47.9299C86.5564 47.9199 86.3464 47.6799 86.3664 47.4099C87.4464 25.8999 95.3564 9.68994 104.766 9.68994C114.986 9.68994 123.296 28.8499 123.296 52.3999C123.296 75.9499 114.976 95.1199 104.756 95.1199Z" fill="var(--illustration-stroke-color, #686868)"/>
<path d="M77.9665 67.1801C76.0665 67.1801 73.9865 67.0501 71.6565 66.7801C71.3865 66.7501 71.1865 66.5001 71.2165 66.2201C71.2465 65.9501 71.4965 65.7501 71.7765 65.7801C83.4465 67.1801 88.9865 64.6701 94.5265 61.4901L98.0165 59.1401C98.8265 58.6001 99.4765 57.9701 99.9465 57.2701C100.466 56.5101 100.516 56.0601 100.526 55.4701C100.546 54.4701 100.456 53.4201 100.256 52.3501L100.146 51.7701C99.9365 50.6601 99.2765 49.7901 98.2865 49.3201C97.0565 48.7401 95.5065 48.8301 94.1365 49.5701C79.9065 57.2301 72.1265 50.9901 71.7965 50.7201C71.5865 50.5401 71.5565 50.2301 71.7265 50.0201C71.9065 49.8101 72.2165 49.7801 72.4265 49.9501C72.4465 49.9701 74.3365 51.4901 77.8665 52.1001C81.1365 52.6601 86.5265 52.5301 93.6565 48.6901C95.3165 47.8001 97.2065 47.7001 98.7165 48.4201C99.9965 49.0301 100.856 50.1601 101.126 51.5901L101.236 52.1701C101.456 53.3201 101.556 54.4401 101.526 55.5001C101.506 56.3301 101.376 56.9501 100.776 57.8401C100.226 58.6501 99.4865 59.3701 98.5765 59.9801L95.0565 62.3501C90.4365 64.9901 85.8365 67.1801 77.9665 67.1801Z" fill="var(--illustration-stroke-color, #686868)"/>
<path d="M56.5665 16.1301C56.3065 16.1301 56.0865 15.9537 56.0665 15.7244L55.8365 13.1666C55.8165 12.9196 56.0165 12.7079 56.2965 12.6903C56.5765 12.6815 56.8165 12.849 56.8365 13.096L57.0665 15.6538C57.0865 15.9008 56.8864 16.1125 56.6064 16.1301C56.5864 16.1301 56.5765 16.1301 56.5665 16.1301Z" fill="var(--illustration-stroke-color, #686868)"/>
<path d="M66.4265 65.7302H62.3564C61.8464 65.7302 61.4265 65.3102 61.4265 64.8002V60.5902C61.4265 60.0802 61.8464 59.6602 62.3564 59.6602H66.4265C66.9365 59.6602 67.3564 60.0802 67.3564 60.5902V64.8002C67.3564 65.3102 66.9365 65.7302 66.4265 65.7302ZM66.3564 60.5902L62.3564 60.6602L62.4265 64.8002L66.3564 64.7302V60.5902ZM66.4265 64.7302C66.4165 64.7302 66.4165 64.7302 66.4265 64.7302V64.7302Z" fill="var(--illustration-stroke-color, #686868)"/>
<path d="M34.6064 52.4701C34.3264 52.4701 34.1064 52.2501 34.1064 51.9701V45.4701C34.1064 43.9101 35.3765 42.6401 36.9365 42.6401H41.5164C41.7964 42.6401 42.0164 42.8601 42.0164 43.1401C42.0164 43.4201 41.7964 43.6401 41.5164 43.6401H36.9365C35.9265 43.6401 35.1064 44.4601 35.1064 45.4701V51.9701C35.1064 52.2501 34.8864 52.4701 34.6064 52.4701Z" fill="var(--illustration-stroke-color, #686868)"/>
<path d="M37.2664 75.7301L36.2564 75.7101C35.7164 75.7101 35.1764 75.5501 34.7164 75.2501C34.4864 75.1001 34.4164 74.7901 34.5664 74.5601C34.7164 74.3301 35.0264 74.2601 35.2564 74.4101C35.5564 74.6001 35.8964 74.7101 36.2564 74.7101L37.2664 74.7301C37.5464 74.7401 37.7664 74.9601 37.7564 75.2401C37.7664 75.5101 37.5464 75.7301 37.2664 75.7301Z" fill="var(--illustration-stroke-color, #686868)"/>
<path d="M56 13C57.6569 13 59 11.8807 59 10.5C59 9.11929 57.6569 8 56 8C54.3431 8 53 9.11929 53 10.5C53 11.8807 54.3431 13 56 13Z" fill="#FF8853"/>
<path d="M56.0965 13.5201C54.3165 13.5201 52.8665 12.0701 52.8665 10.2901C52.8665 8.51006 54.3165 7.06006 56.0965 7.06006C57.8765 7.06006 59.3264 8.51006 59.3264 10.2901C59.3264 12.0701 57.8765 13.5201 56.0965 13.5201ZM56.0965 8.06006C54.8665 8.06006 53.8665 9.06006 53.8665 10.2901C53.8665 11.5201 54.8665 12.5201 56.0965 12.5201C57.3265 12.5201 58.3264 11.5201 58.3264 10.2901C58.3264 9.06006 57.3265 8.06006 56.0965 8.06006Z" fill="var(--illustration-stroke-color, #686868)"/>
<path d="M85.4264 24.6499C85.2864 24.6499 85.1464 24.5899 85.0464 24.4799L77.1764 15.5399C76.9964 15.3299 77.0164 15.0199 77.2264 14.8299C77.4364 14.6499 77.7465 14.6699 77.9365 14.8799L85.8065 23.8199C85.9865 24.0299 85.9664 24.3399 85.7564 24.5299C85.6564 24.5999 85.5464 24.6499 85.4264 24.6499Z" fill="var(--illustration-stroke-color, #686868)"/>
<path d="M89.4764 97.57C89.3664 97.57 89.2564 97.53 89.1664 97.46C88.9564 97.29 88.9164 96.97 89.0864 96.76L92.2964 92.78C92.4664 92.56 92.7864 92.53 92.9964 92.7C93.2064 92.87 93.2464 93.19 93.0764 93.4L89.8664 97.38C89.7664 97.51 89.6264 97.57 89.4764 97.57Z" fill="var(--illustration-stroke-color, #686868)"/>
<path d="M81.3765 72.06L82.3864 72.62L81.3765 73.19L80.8165 74.22L80.2664 73.19L79.2465 72.62L80.2664 72.06L80.8165 71.02L81.3765 72.06Z" fill="var(--illustration-stroke-color, #686868)"/>
<path d="M89.7964 12.07L90.8165 12.63L89.7964 13.2L89.2465 14.23L88.6865 13.2L87.6765 12.63L88.6865 12.07L89.2465 11.03L89.7964 12.07Z" fill="var(--illustration-stroke-color, #686868)"/>
<path d="M104.736 26.8L105.746 27.37L104.736 27.93L104.176 28.97L103.626 27.93L102.606 27.37L103.626 26.8L104.176 25.77L104.736 26.8Z" fill="var(--illustration-stroke-color, #686868)"/>
<path d="M78.6765 91.2C78.4965 91.2 78.3264 91.1 78.2364 90.93C78.1064 90.69 78.1964 90.38 78.4464 90.25L88.2864 85.04C88.5264 84.91 88.8365 85 88.9665 85.25C89.0965 85.49 89.0064 85.8 88.7564 85.93L78.9164 91.14C78.8364 91.18 78.7565 91.2 78.6765 91.2Z" fill="var(--illustration-stroke-color, #686868)"/>
<path d="M70.76 49.9199C56.9 49.9199 55.86 41.9799 55.41 38.4999L55.36 38.1499C55.21 37.0199 55.24 34.9299 55.96 33.7999C57.17 31.8799 60.4 28.5699 68.43 27.9999C71.95 27.7499 74.87 27.8499 77.11 28.2999C77.38 28.3499 77.56 28.6199 77.5 28.8899C77.45 29.1599 77.18 29.3299 76.91 29.2799C74.76 28.8499 71.93 28.7499 68.5 28.9999C60.91 29.5499 57.92 32.5799 56.81 34.3399C56.33 35.0999 56.2 36.8499 56.36 38.0199L56.41 38.3699C56.89 42.0099 57.87 49.5899 72.64 48.8699C72.89 48.8499 72.4135 49.5 72.4135 49.5C72.4135 49.5 71.6935 49.99 71.4135 50C70.7435 50.04 71.37 49.9199 70.76 49.9199Z" fill="var(--illustration-stroke-color, #686868)"/>
<path d="M47.3364 41.5798C45.4664 41.5798 43.9564 40.0598 43.9564 38.1998C43.9564 36.3298 45.4764 34.8198 47.3364 34.8198C49.2064 34.8198 50.7164 36.3398 50.7164 38.1998C50.7164 40.0698 49.1964 41.5798 47.3364 41.5798ZM47.3364 35.8198C46.0264 35.8198 44.9564 36.8898 44.9564 38.1998C44.9564 39.5098 46.0264 40.5798 47.3364 40.5798C48.6464 40.5798 49.7164 39.5098 49.7164 38.1998C49.7164 36.8898 48.6464 35.8198 47.3364 35.8198Z" fill="var(--illustration-stroke-color, #686868)"/>
<defs>
<linearGradient id="paint0_linear_818_1784" x1="96.6572" y1="52.179" x2="110.419" y2="52.179" gradientUnits="userSpaceOnUse">
<stop stop-color="#FF7002"/>
<stop offset="0.192708" stop-color="#FE7304"/>
<stop offset="0.4996" stop-color="#FC7C0A"/>
<stop offset="0.6759" stop-color="#F88B15"/>
<stop offset="0.8364" stop-color="#F3A125"/>
<stop offset="0.9849" stop-color="#ECBD39"/>
<stop offset="1" stop-color="#EBC03B"/>
</linearGradient>
</defs>
</svg>